<svg width="18" height="18" viewBox="0 0 18 18" fill="none" xmlns="http://www.w3.org/2000/svg">
<g clip-path="url(#clip0_1_4)">
<path d="M16.902 18C16.614 18 16.344 17.892 16.128 17.676L0.324 1.872C-0.108 1.44 -0.108 0.755999 0.324 0.324C0.756 -0.108 1.44 -0.108 1.872 0.324L17.676 16.128C17.7786 16.2291 17.86 16.3496 17.9156 16.4825C17.9712 16.6153 17.9999 16.7579 17.9999 16.902C17.9999 17.046 17.9712 17.1886 17.9156 17.3215C17.86 17.4544 17.7786 17.5749 17.676 17.676C17.5753 17.7791 17.4548 17.8609 17.3219 17.9165C17.1889 17.9722 17.0461 18.0006 16.902 18ZM1.098 18C0.81 18 0.54 17.892 0.324 17.676C0.221412 17.5749 0.139948 17.4544 0.0843444 17.3215C0.0287405 17.1886 0.000106193 17.046 0.000106193 16.902C0.000106193 16.7579 0.0287405 16.6153 0.0843444 16.4825C0.139948 16.3496 0.221412 16.2291 0.324 16.128L16.128 0.324C16.56 -0.108 17.244 -0.108 17.676 0.324C18.108 0.755999 18.108 1.44 17.676 1.872L1.872 17.676C1.77126 17.7791 1.65084 17.8609 1.51788 17.9165C1.38492 17.9722 1.24214 18.0006 1.098 18Z" fill="black"/>
</g>
<defs>
<clipPath id="clip0_1_4">
<rect width="18" height="18" fill="white"/>
</clipPath>
</defs>
</svg>
