<svg width="14" height="14" viewBox="0 0 14 14" fill="none" xmlns="http://www.w3.org/2000/svg">
<g clip-path="url(#clip0_1_6)">
<path d="M13.146 14C12.922 14 12.712 13.916 12.544 13.748L0.252 1.456C-0.084 1.12 -0.084 0.588 0.252 0.252C0.588 -0.084 1.12 -0.084 1.456 0.252L13.748 12.544C13.8278 12.6226 13.8911 12.7164 13.9344 12.8197C13.9776 12.923 13.9999 13.034 13.9999 13.146C13.9999 13.258 13.9776 13.3689 13.9344 13.4723C13.8911 13.5756 13.8278 13.6694 13.748 13.748C13.6696 13.8282 13.576 13.8918 13.4726 13.9351C13.3692 13.9784 13.2581 14.0004 13.146 14ZM0.853999 14C0.63 14 0.42 13.916 0.252 13.748C0.172209 13.6694 0.108849 13.5756 0.0656012 13.4723C0.0223538 13.3689 8.25942e-05 13.258 8.25942e-05 13.146C8.25942e-05 13.034 0.0223538 12.923 0.0656012 12.8197C0.108849 12.7164 0.172209 12.6226 0.252 12.544L12.544 0.252C12.88 -0.084 13.412 -0.084 13.748 0.252C14.084 0.588 14.084 1.12 13.748 1.456L1.456 13.748C1.37765 13.8282 1.28399 13.8918 1.18057 13.9351C1.07716 13.9784 0.966106 14.0004 0.853999 14Z" fill="black"/>
</g>
<defs>
<clipPath id="clip0_1_6">
<rect width="14" height="14" fill="white"/>
</clipPath>
</defs>
</svg>
